<svg xmlns="http://www.w3.org/2000/svg" viewBox="0 0 218 29.5"><path d="M42.04 6.95h3.09l1.55 5.99c.38 1.41.64 2.71 1.03 4.12h.08c.39-1.42.67-2.72 1.03-4.12l1.52-5.99h2.98l-3.88 12.87h-3.5L42.05 6.95ZM59.1 12.3h-3.94v-2.28h6.85v9.8H59.1V12.3Zm-.61-5.58c0-1.06.81-1.81 1.93-1.81s1.93.74 1.93 1.81-.81 1.78-1.93 1.78-1.93-.71-1.93-1.78ZM68.9 15.76V12.3h-2.47v-2.16l2.6-.11.37-2.99h2.4v2.99h4.13v2.28H71.8v3.42c0 1.49.63 2.05 2.06 2.05.73 0 1.36-.15 1.93-.35l.53 2.1c-.87.26-1.9.53-3.2.53-3.12 0-4.22-1.73-4.22-4.3ZM78.39 14.91c0-3.21 2.47-5.13 5.1-5.13 3.02 0 4.61 2.04 4.61 4.7 0 .53-.08 1.06-.12 1.3h-7.43v-1.95h5.47l-.46.55c0-1.57-.68-2.4-1.97-2.4-1.43 0-2.38.97-2.38 2.92s1.11 2.93 3.01 2.93c.89 0 1.66-.24 2.52-.68l.96 1.75c-1.12.72-2.57 1.15-3.88 1.15-3.05 0-5.43-1.88-5.43-5.14ZM102.32 18.14l.99-1.15c.99.97 2.33 1.6 3.79 1.6 1.78 0 2.8-.85 2.8-2.03 0-1.38-1.01-1.78-2.31-2.33l-1.88-.83c-1.28-.51-2.78-1.42-2.78-3.34s1.78-3.44 4.25-3.44c1.62 0 3.04.65 3.99 1.6l-.87 1.07c-.85-.75-1.84-1.2-3.18-1.2-1.5 0-2.51.71-2.51 1.88 0 1.24 1.21 1.7 2.31 2.13l1.82.81c1.6.63 2.86 1.54 2.86 3.46 0 2.05-1.74 3.69-4.58 3.69-1.9 0-3.53-.75-4.7-1.92ZM116.92 16.08v-4.54h-2.72v-1.22l2.78-.1.22-3.08h1.36v3.08h4.7v1.32h-4.7v4.56c0 1.72.57 2.61 2.43 2.61.89 0 1.6-.18 2.29-.43l.36 1.2c-.87.32-1.8.57-3 .57-2.8 0-3.71-1.6-3.71-3.97ZM126.28 17.33c0-2.15 2.01-3.2 6.97-3.59-.06-1.3-.69-2.41-2.55-2.41-1.24 0-2.47.59-3.36 1.15l-.65-1.11c.99-.63 2.61-1.38 4.29-1.38 2.63 0 3.91 1.56 3.91 3.95v5.88h-1.36l-.14-1.3h-.06c-1.05.83-2.43 1.54-3.77 1.54-1.8 0-3.28-1.01-3.28-2.72Zm6.97-.02v-2.49c-4.11.32-5.35 1.13-5.35 2.39 0 1.09.99 1.52 2.09 1.52s2.15-.51 3.26-1.42ZM139.41 10.22h1.36l.16 2.27h.04c1.01-1.56 2.51-2.51 4.28-2.51.71 0 1.3.1 1.9.4l-.38 1.4c-.67-.22-1.03-.32-1.78-.32-1.44 0-2.8.73-3.95 2.74v5.61h-1.64v-9.59ZM152.46 16.08v-4.54h-2.72v-1.22l2.78-.1.22-3.08h1.36v3.08h4.7v1.32h-4.7v4.56c0 1.72.57 2.61 2.43 2.61.89 0 1.6-.18 2.29-.43l.36 1.2c-.87.32-1.8.57-3 .57-2.8 0-3.71-1.6-3.71-3.97ZM161.59 15c0-3.12 2.33-5.02 4.9-5.02 2.76 0 4.38 1.8 4.38 4.5 0 .38-.04.73-.08.99h-8.12v-1.26h7.15l-.41.45c0-2.27-1.13-3.4-2.88-3.4s-3.32 1.34-3.32 3.73 1.62 3.75 3.75 3.75c1.15 0 2.05-.35 2.92-.91l.59 1.07c-.95.63-2.17 1.15-3.71 1.15-2.88 0-5.17-1.86-5.17-5.05ZM174.96 10.22h1.36l.16 2.27h.04c1.01-1.56 2.51-2.51 4.28-2.51.71 0 1.3.1 1.9.4l-.38 1.4c-.67-.22-1.03-.32-1.78-.32-1.44 0-2.8.73-3.95 2.74v5.61h-1.64v-9.59ZM186.02 5.76h1.64v9.5h.08l5.15-5.04h1.88l-7.11 6.99v2.61h-1.64V5.76Zm3.69 8.96.99-1.07 4.58 6.16h-1.82l-3.75-5.09ZM202.01 11.54h-4.44v-1.32h6.08v9.6h-1.64v-8.28Zm-.65-4.6c0-.75.55-1.26 1.3-1.26s1.3.51 1.3 1.26-.55 1.26-1.3 1.26-1.3-.49-1.3-1.26ZM211.71 16.08v-4.54h-2.72v-1.22l2.78-.1.22-3.08h1.36v3.08h4.7v1.32h-4.7v4.56c0 1.72.57 2.61 2.43 2.61.89 0 1.6-.18 2.29-.43l.36 1.2c-.87.32-1.8.57-3 .57-2.8 0-3.71-1.6-3.71-3.97ZM.56 10.88 6.1 5.34a2.645 2.645 0 0 1 2.37-.73l2.54.46C9.8 6.43 8.83 7.72 8.08 8.94c-.75 1.22-1.44 2.64-2.07 4.26L.56 10.88Zm6.65 2.93c.59-1.6 1.34-3.11 2.24-4.53.9-1.42 1.92-2.69 3.06-3.84 1.93-1.93 4.14-3.38 6.62-4.33 2.49-.95 4.81-1.24 6.96-.87.37 2.15.09 4.47-.86 6.95-.94 2.48-2.38 4.69-4.31 6.62-1.14 1.14-2.43 2.16-3.85 3.06s-2.94 1.65-4.54 2.24l-5.3-5.3Zm9.42-4.12c.44.44.98.66 1.63.66s1.19-.22 1.63-.66c.44-.44.66-.98.66-1.63s-.22-1.19-.66-1.63c-.44-.44-.98-.66-1.63-.66-.65 0-1.19.22-1.63.66-.44.44-.66.98-.66 1.63 0 .65.22 1.19.66 1.63Zm-1.15 16.07-2.37-5.43c1.62-.64 3.05-1.33 4.26-2.07 1.22-.75 2.51-1.72 3.87-2.93l.46 2.54c.09.44.07.87-.07 1.3s-.35.8-.66 1.1l-5.5 5.5ZM2.67 18.09c.77-.77 1.7-1.16 2.8-1.17 1.1-.01 2.03.37 2.8 1.14.77.77 1.15 1.7 1.15 2.8s-.38 2.03-1.15 2.8c-.57.57-1.46 1.04-2.67 1.42-1.21.37-3.01.72-5.4 1.05.33-2.39.68-4.19 1.05-5.38s.85-2.08 1.42-2.65Z"/></svg>